<svg height="512" viewBox="0 0 58 52" width="512" xmlns="http://www.w3.org/2000/svg"><g id="035---Right-Arrows" fill="none"><path id="Shape" d="m32.89 23.24-21-22c-.75206-.79282992-1.7972182-1.24127151-2.89-1.24h-5c-1.59950717.00209304-3.04398742.95686085-3.67275155 2.42760326-.62876414 1.4707424-.32091071 3.17465878.78275155 4.33239674l18.36 19.24-18.36 19.24c-1.10366226 1.157738-1.41151569 2.8616543-.78275155 4.3323967.62876413 1.4707424 2.07324438 2.4255103 3.67275155 2.4276033h5c1.092395-.0006124 2.1368412-.4487485 2.89-1.24l21-22c1.4801808-1.5423186 1.4801808-3.9776814 0-5.52z" fill="#26b99a"/><path id="Shape" d="m56.89 23.24-21-22c-.75206-.79282992-1.7972182-1.24127151-2.89-1.24h-5c-1.5995072.00209304-3.0439874.95686085-3.6727516 2.42760326-.6287641 1.4707424-.3209107 3.17465878.7827516 4.33239674l18.36 19.24-18.36 19.24c-1.1036623 1.157738-1.4115157 2.8616543-.7827516 4.3323967.6287642 1.4707424 2.0732444 2.4255103 3.6727516 2.4276033h5c1.092395-.0006124 2.1368412-.4487485 2.89-1.24l21-22c1.4801808-1.5423186 1.4801808-3.9776814 0-5.52z" fill="#26b99a"/><path id="Shape" d="m24.47 26-18.13 19h-5l18.13-19z" fill="#33907c"/><path id="Shape" d="m9 52h-5c-1.59950717-.002093-3.04398742-.9568609-3.67275155-2.4276033-.62876414-1.4707424-.32091071-3.1746587.78275155-4.3323967l.23-.24h5l-.23.24c-1.10366226 1.157738-1.41151569 2.8616543-.78275156 4.3323967.62876414 1.4707424 2.07324439 2.4255103 3.67275156 2.4276033z" fill="#14a085"/><path id="Shape" d="m6.11 6.76.23.24h-5l-.23-.24c-1.10366226-1.15773796-1.41151569-2.86165434-.78275155-4.33239674.62876413-1.47074241 2.07324438-2.42551022 3.67275155-2.42760326h5c-1.59950717.00209304-3.04398742.95686085-3.67275156 2.42760326-.62876413 1.4707424-.3209107 3.17465878.78275156 4.33239674z" fill="#33907c"/><path id="Shape" d="m24.47 26h-5l-18.13-19h5z" fill="#14a085"/><path id="Shape" d="m33 52h-5c-1.5995072-.002093-3.0439874-.9568609-3.6727516-2.4276033-.6287641-1.4707424-.3209107-3.1746587.7827516-4.3323967l.23-.24h5l-.23.24c-1.1036623 1.157738-1.4115157 2.8616543-.7827516 4.3323967.6287642 1.4707424 2.0732444 2.4255103 3.6727516 2.4276033z" fill="#14a085"/><path id="Shape" d="m30.11 6.76.23.24h-5l-.23-.24c-1.1036623-1.15773796-1.4115157-2.86165434-.7827516-4.33239674.6287642-1.47074241 2.0732444-2.42551022 3.6727516-2.42760326h5c-1.5995072.00209304-3.0439874.95686085-3.6727516 2.42760326-.6287641 1.4707424-.3209107 3.17465878.7827516 4.33239674z" fill="#33907c"/><path id="Shape" d="m48.47 26h-5l-18.13-19h5z" fill="#14a085"/><path id="Shape" d="m48.47 26-18.13 19h-5l18.13-19z" fill="#33907c"/></g></svg>